<?xml version="1.0" encoding="UTF-8" standalone="no"?>
<!-- Created with Inkscape (http://www.inkscape.org/) -->

<svg
   width="24.0px"
   height="24.0px"
   viewBox="0 0 24.0 24.0"
   version="1.1"
   id="SVGRoot"
   sodipodi:docname="notification_icon.svg"
   inkscape:version="1.2.2 (b0a8486541, 2022-12-01)"
   xmlns:inkscape="http://www.inkscape.org/namespaces/inkscape"
   xmlns:sodipodi="http://sodipodi.sourceforge.net/DTD/sodipodi-0.dtd"
   xmlns="http://www.w3.org/2000/svg"
   xmlns:svg="http://www.w3.org/2000/svg">
  <sodipodi:namedview
     id="namedview1216"
     pagecolor="#505050"
     bordercolor="#eeeeee"
     borderopacity="1"
     inkscape:showpageshadow="0"
     inkscape:pageopacity="0"
     inkscape:pagecheckerboard="0"
     inkscape:deskcolor="#505050"
     inkscape:document-units="px"
     showgrid="true"
     inkscape:zoom="10.935377"
     inkscape:cx="-3.2463445"
     inkscape:cy="12.711039"
     inkscape:window-width="1920"
     inkscape:window-height="1018"
     inkscape:window-x="26"
     inkscape:window-y="23"
     inkscape:window-maximized="0"
     inkscape:current-layer="layer1">
    <inkscape:grid
       type="xygrid"
       id="grid1339"
       originx="12"
       originy="12" />
    <sodipodi:guide
       position="2,22"
       orientation="20,0"
       id="guide1400"
       inkscape:locked="false" />
    <sodipodi:guide
       position="2,2"
       orientation="0,20"
       id="guide1402"
       inkscape:locked="false" />
    <sodipodi:guide
       position="22,2"
       orientation="-20,0"
       id="guide1404"
       inkscape:locked="false" />
    <sodipodi:guide
       position="22,22"
       orientation="0,-20"
       id="guide1406"
       inkscape:locked="false" />
  </sodipodi:namedview>
  <defs
     id="defs1211">
    <inkscape:path-effect
       effect="fillet_chamfer"
       id="path-effect1002"
       is_visible="true"
       lpeversion="1"
       nodesatellites_param="F,0,0,1,0,1,0,1 @ F,0,0,1,0,1,0,1 @ F,0,0,1,0,1,0,1 @ F,0,0,1,0,1,0,1 @ F,0,0,1,0,1,0,1 @ F,0,0,1,0,1,0,1 @ F,0,0,1,0,1,0,1 @ F,0,0,1,0,1,0,1"
       unit="px"
       method="auto"
       mode="F"
       radius="1"
       chamfer_steps="1"
       flexible="false"
       use_knot_distance="true"
       apply_no_radius="true"
       apply_with_radius="true"
       only_selected="false"
       hide_knots="false" />
    <inkscape:path-effect
       effect="fillet_chamfer"
       id="path-effect3750"
       is_visible="true"
       lpeversion="1"
       nodesatellites_param="F,0,0,1,0,4,0,1 @ F,0,0,1,0,4,0,1 @ F,0,0,1,0,4,0,1 @ F,0,0,1,0,4,0,1 @ F,0,0,1,0,4,0,1 @ F,0,0,1,0,4,0,1 @ F,0,0,1,0,4,0,1 @ F,0,0,1,0,4,0,1"
       unit="px"
       method="auto"
       mode="F"
       radius="4"
       chamfer_steps="1"
       flexible="false"
       use_knot_distance="true"
       apply_no_radius="true"
       apply_with_radius="true"
       only_selected="false"
       hide_knots="false" />
    <inkscape:path-effect
       effect="fillet_chamfer"
       id="path-effect3750-6"
       is_visible="true"
       lpeversion="1"
       nodesatellites_param="F,0,0,1,0,1,0,1 @ F,0,0,1,0,1,0,1 @ F,0,0,1,0,1,0,1 @ F,0,0,1,0,1,0,1 @ F,0,0,1,0,1,0,1 @ F,0,0,1,0,1,0,1 @ F,0,0,1,0,1,0,1 @ F,0,0,1,0,1,0,1"
       unit="px"
       method="auto"
       mode="F"
       radius="1"
       chamfer_steps="1"
       flexible="false"
       use_knot_distance="true"
       apply_no_radius="true"
       apply_with_radius="true"
       only_selected="false"
       hide_knots="false" />
    <inkscape:path-effect
       effect="fillet_chamfer"
       id="path-effect3750-6-5"
       is_visible="true"
       lpeversion="1"
       nodesatellites_param="F,0,0,1,0,1,0,1 @ F,0,0,1,0,1,0,1 @ F,0,0,1,0,1,0,1 @ F,0,0,1,0,1,0,1 @ F,0,0,1,0,1,0,1 @ F,0,0,1,0,1,0,1 @ F,0,0,1,0,1,0,1 @ F,0,0,1,0,1,0,1"
       unit="px"
       method="auto"
       mode="F"
       radius="1"
       chamfer_steps="1"
       flexible="false"
       use_knot_distance="true"
       apply_no_radius="true"
       apply_with_radius="true"
       only_selected="false"
       hide_knots="false" />
  </defs>
  <g
     inkscape:label="Icon"
     inkscape:groupmode="layer"
     id="layer1"
     style="display:inline;opacity:1">
    <path
       style="color:#000000;fill:#212121;stroke-linecap:round;stroke-linejoin:round;-inkscape-stroke:none"
       d="M 12,16.25 A 1.75,1.75 0 0 0 10.25,18 v 4 A 1.75,1.75 0 0 0 12,23.75 1.75,1.75 0 0 0 13.75,22 V 18 A 1.75,1.75 0 0 0 12,16.25 Z"
       id="path1161" />
    <path
       id="path994"
       style="color:#000000;display:inline;fill:#212121;stroke-linecap:round;stroke-linejoin:round;-inkscape-stroke:none"
       d="M 9,2 A 1,1 0 0 0 8,3 V 7 H 6 A 1,1 0 0 0 5,8 v 5 a 2.4142136,2.4142136 0 0 0 0.7070312,1.707031 l 1.5859376,1.585938 a 4.236068,4.236068 0 0 1 1.0234374,1.65625 l 0.3671876,1.101562 A 1.3874259,1.3874259 0 0 0 10,20 h 4 a 1.3874259,1.3874259 0 0 0 1.316406,-0.949219 l 0.367188,-1.101562 a 4.236068,4.236068 0 0 1 1.023437,-1.65625 l 1.585938,-1.585938 A 2.4142136,2.4142136 0 0 0 19,13 V 8 A 1,1 0 0 0 18,7 H 16 V 3 A 1,1 0 0 0 15,2 1,1 0 0 0 14,3 V 7 H 10 V 3 A 1,1 0 0 0 9,2 Z" />
  </g>
  <g
     inkscape:groupmode="layer"
     id="layer2"
     inkscape:label="Template"
     style="display:none">
    <path
       style="display:inline;fill:none;stroke:#212121;stroke-width:3.5;stroke-linecap:round;stroke-linejoin:round;stroke-dasharray:none;stroke-opacity:1"
       d="M 12,22 V 18"
       id="path1416-3-7"
       sodipodi:nodetypes="cc"
       inkscape:label="cable" />
    <path
       style="display:inline;fill:none;stroke:#212121;stroke-width:2;stroke-linecap:round;stroke-linejoin:round;stroke-dasharray:none;stroke-opacity:1"
       d="M 9,7 V 3"
       id="path1416"
       sodipodi:nodetypes="cc"
       inkscape:label="left" />
    <path
       style="display:inline;fill:none;stroke:#212121;stroke-width:2;stroke-linecap:round;stroke-linejoin:round;stroke-dasharray:none;stroke-opacity:1"
       d="M 15,7 V 3"
       id="path1416-3"
       sodipodi:nodetypes="cc"
       inkscape:label="right" />
    <path
       style="display:inline;fill:#212121;fill-opacity:1;stroke:none;stroke-width:0.229674px;stroke-linecap:butt;stroke-linejoin:miter;stroke-opacity:1"
       d="m 6,7 h 12 a 1,1 45 0 1 1,1 v 5 a 2.4142136,2.4142136 112.5 0 1 -0.707107,1.707107 l -1.585786,1.585786 a 4.236068,4.236068 121.71747 0 0 -1.023335,1.65579 l -0.367544,1.102634 A 1.3874259,1.3874259 144.21747 0 1 14,20 H 10 A 1.3874259,1.3874259 35.782526 0 1 8.6837722,19.051317 L 8.3162278,17.948683 A 4.236068,4.236068 58.282526 0 0 7.2928932,16.292893 L 5.7071068,14.707107 A 2.4142136,2.4142136 67.5 0 1 5,13 V 8 A 1,1 135 0 1 6,7 Z"
       id="path3748"
       sodipodi:nodetypes="ccccccccc"
       inkscape:path-effect="#path-effect3750-6"
       inkscape:original-d="m 5,7 h 14 v 7 l -3,3 -1,3 H 9 L 8,17 5,14 Z"
       inkscape:label="body" />
  </g>
</svg>
