<?xml version="1.0" encoding="UTF-8" standalone="no"?>
<!-- Created with Inkscape (http://www.inkscape.org/) -->

<svg width="176" height="176" viewBox="0 0 176 176" version="1.1" id="SVGRoot" xmlns="http://www.w3.org/2000/svg">
  <defs
     id="defs533">
    <filter
       style="color-interpolation-filters:sRGB"
       id="filter5953"
       x="-0.16"
       y="-0.12631579"
       width="1.3866667"
       height="1.3052632">
      <feFlood
         flood-opacity="0.2"
         flood-color="rgb(0,0,0)"
         result="flood"
         id="feFlood5943" />
      <feComposite
         in="flood"
         in2="SourceGraphic"
         operator="in"
         result="composite1"
         id="feComposite5945" />
      <feGaussianBlur
         in="composite1"
         stdDeviation="4"
         result="blur"
         id="feGaussianBlur5947" />
      <feOffset
         dx="4"
         dy="4"
         result="offset"
         id="feOffset5949" />
      <feComposite
         in="SourceGraphic"
         in2="offset"
         operator="over"
         result="composite2"
         id="feComposite5951" />
    </filter>
    <filter
       style="color-interpolation-filters:sRGB"
       id="filter5983"
       x="-0.10949759"
       y="-0.068049975"
       width="1.2646192"
       height="1.1644541">
      <feFlood
         flood-opacity="0.2"
         flood-color="rgb(0,0,0)"
         result="flood"
         id="feFlood5973" />
      <feComposite
         in="flood"
         in2="SourceGraphic"
         operator="in"
         result="composite1"
         id="feComposite5975" />
      <feGaussianBlur
         in="composite1"
         stdDeviation="4"
         result="blur"
         id="feGaussianBlur5977" />
      <feOffset
         dx="4"
         dy="4"
         result="offset"
         id="feOffset5979" />
      <feComposite
         in="SourceGraphic"
         in2="offset"
         operator="over"
         result="composite2"
         id="feComposite5981" />
    </filter>
  </defs>
  <g
     id="layer2"
     style="display:inline"
     transform="translate(-8,-8)">
    <circle
       style="display:inline;fill:#ffffff;fill-opacity:1;fill-rule:evenodd;stroke:none;stroke-width:8;stroke-linecap:butt;stroke-linejoin:round;stroke-dasharray:none;stroke-opacity:1;paint-order:stroke fill markers"
       id="path9937"
       cx="96"
       cy="96"
       r="88" />
  </g>
  <g
     id="layer1"
     transform="translate(-11.99379,1.040018)"
     style="display:inline">
    <path
       style="color:#000000;display:inline;fill:#212121;stroke-linecap:round;stroke-linejoin:round;-inkscape-stroke:none;paint-order:stroke fill markers;filter:url(#filter5983)"
       d="m 99.99379,78.174826 c -12.177257,0.146448 -4.121609,15.245776 -9.982938,19.769496 -9.02642,2.786358 -19.757186,1.67629 -27.021912,8.752848 -6.327561,5.3799 -9.172161,15.14655 -4.493066,22.49071 5.973888,10.15183 19.305125,12.13912 29.984273,10.07623 10.84849,-1.53843 21.469213,-5.01254 32.467143,-5.24737 4.51851,0.16414 11.79081,5.01082 4.48968,8.15656 -8.82457,3.52671 -19.96743,1.38404 -27.147052,8.73485 -6.604761,7.28023 -5.581237,17.88898 -5.796125,27.01389 1.69e-4,11.34598 0.0011,22.69196 0.002,34.03794 -0.191468,10.89292 16.668827,8.76319 14.999917,-1.05108 0.20021,-14.82335 -0.41562,-29.673 0.33501,-44.4803 -0.81415,-7.26958 7.6648,-6.37036 12.54921,-7.52161 8.70761,-0.8023 17.6683,-4.98358 21.59614,-13.20531 4.95869,-8.84123 -0.54024,-20.30601 -9.46434,-24.02866 -12.23118,-5.70286 -25.67575,-0.884 -38.162109,1.25555 -6.525175,0.77985 -13.706066,3.80954 -19.954434,0.47358 -7.347323,-2.57225 0.895611,-8.38909 5.276211,-8.10059 8.270338,-1.65289 18.3864,-1.30801 23.776002,-9.02817 4.04324,-6.02356 4.02354,-13.617158 4.04639,-20.600517 0.10946,-4.006528 -3.4935,-7.608555 -7.499997,-7.498047 z"
       id="path4794" />
    <path
       id="path1416-1"
       style="color:#000000;fill:#212121;stroke-linecap:round;stroke-linejoin:round;-inkscape-stroke:none;filter:url(#filter5953)"
       d="m 83,26 a 4,4 0 0 0 -4,4 v 17 h -9 a 4,4 0 0 0 -4,4 v 22 a 9.6568542,9.6568542 0 0 0 2.828125,6.828125 l 7.34375,7.34375 a 16.944272,16.944272 0 0 1 4.09375,6.623047 l 1.46875,4.410156 A 5.5497035,5.5497035 0 0 0 87,102 h 18 a 5.5497035,5.5497035 0 0 0 5.26562,-3.794922 l 1.46876,-4.410156 a 16.944272,16.944272 0 0 1 4.09374,-6.623047 l 7.34376,-7.34375 A 9.6568542,9.6568542 0 0 0 126,73 V 51 a 4,4 0 0 0 -4,-4 h -9 V 30 a 4,4 0 0 0 -4,-4 4,4 0 0 0 -4,4 V 47 H 87 V 30 a 4,4 0 0 0 -4,-4 z"
       transform="translate(3.99379,-9.040018)" />
    <path
       id="path4482"
       style="color:#000000;display:inline;fill:#daa520;stroke-linejoin:round;-inkscape-stroke:none"
       d="m 83,26 c -2.202847,0 -4,1.797153 -4,4 v 6 h 8 v -6 c 0,-2.202847 -1.797153,-4 -4,-4 z m 26,0 c -2.20285,0 -4,1.797155 -4,4 v 6 h 8 v -6 c 0,-2.202845 -1.79715,-4 -4,-4 z"
       transform="translate(3.99379,-9.040018)" />
  </g>
</svg>
